<?xml version="1.0" encoding="UTF-8" standalone="no" ?>
<!DOCTYPE svg PUBLIC "-//W3C//DTD SVG 1.1//EN" "http://www.w3.org/Graphics/SVG/1.1/DTD/svg11.dtd">
<svg xmlns="http://www.w3.org/2000/svg" xmlns:xlink="http://www.w3.org/1999/xlink" version="1.1" width="131.125" height="114.64" xml:space="preserve">
<desc>Created with Fabric.js 1.6.0-rc.1</desc>
<defs></defs>
<g style="stroke: none; stroke-width: 1; stroke-dasharray: none; stroke-linecap: butt; stroke-linejoin: miter; stroke-miterlimit: 10; fill: none; fill-rule: nonzero; opacity: 1;" transform="translate(10 10) scale(1.75 1.75)" >
  <path d="M 36.695 28.835 c -1.676 0 -3.035 -1.354 -3.035 -3.028 V 3.033 C 33.66 1.355 35.019 0 36.695 0 h 22.774 c 1.673 0 3.027 1.355 3.031 3.033 v 22.774 h -0.004 c 0 1.674 -1.354 3.028 -3.027 3.03 l 0 0 L 36.695 28.835 L 36.695 28.835 L 36.695 28.835 z M 34.874 3.033 v 22.774 c 0.002 1.004 0.815 1.816 1.821 1.818 h 22.774 c 1.002 -0.002 1.815 -0.814 1.817 -1.818 V 3.033 c -0.002 -1.009 -0.815 -1.821 -1.817 -1.821 l 0 0 L 36.695 1.209 C 35.688 1.211 34.876 2.024 34.874 3.033 L 34.874 3.033" style="stroke: none; stroke-width: 1; stroke-dasharray: none; stroke-linecap: butt; stroke-linejoin: miter; stroke-miterlimit: 10; fill: #3399CC; fill-rule: nonzero; opacity: 1;" transform=" matrix(1 0 0 1 0 0) " stroke-linecap="round" />
  <path d="M 24.66 4.555 H 13.487 c -0.991 0.002 -1.797 0.804 -1.797 1.799 v 11.169 c 0.002 0.995 0.806 1.793 1.797 1.793 v 0.003 h 11.17 c 0.991 -0.003 1.796 -0.801 1.796 -1.795 V 6.354 C 26.454 5.359 25.648 4.558 24.66 4.555 L 24.66 4.555 z M 12.904 6.354 c 0 -0.325 0.258 -0.586 0.583 -0.589 l 11.17 0.005 c 0.323 -0.002 0.584 0.259 0.584 0.584 v 11.169 c 0 0.323 -0.261 0.583 -0.582 0.583 H 13.487 c -0.325 0 -0.583 -0.26 -0.586 -0.583 L 12.904 6.354" style="stroke: none; stroke-width: 1; stroke-dasharray: none; stroke-linecap: butt; stroke-linejoin: miter; stroke-miterlimit: 10; fill: #FFB43F; fill-rule: nonzero; opacity: 1;" transform=" matrix(1 0 0 1 0 0) " stroke-linecap="round" />
  <path d="M 40.55 14.253 H 21.945 c -1.646 0.002 -2.982 1.336 -2.982 2.984 v 18.606 c 0 1.646 1.336 2.979 2.982 2.981 v -0.003 H 40.55 c 1.65 0 2.984 -1.333 2.984 -2.979 V 17.237 C 43.534 15.589 42.2 14.255 40.55 14.253 z M 42.422 17.237 v 18.606 c -0.002 1.03 -0.837 1.868 -1.873 1.868 H 21.945 c -1.034 0 -1.866 -0.838 -1.869 -1.868 V 17.237 c 0.002 -1.037 0.835 -1.869 1.869 -1.872 H 40.55 C 41.585 15.368 42.42 16.2 42.422 17.237" style="stroke: none; stroke-width: 1; stroke-dasharray: none; stroke-linecap: butt; stroke-linejoin: miter; stroke-miterlimit: 10; fill: #FFF01F; fill-rule: nonzero; opacity: 1;" transform=" matrix(1 0 0 1 0 0) " stroke-linecap="round" />
  <path d="M 49.014 33.757 H 37.842 c -0.991 0.002 -1.799 0.804 -1.799 1.797 v 11.173 c 0.004 0.992 0.808 1.791 1.799 1.791 v 0.003 l 11.171 0.002 c 0.989 -0.005 1.792 -0.804 1.792 -1.796 V 35.554 C 50.806 34.561 50.002 33.759 49.014 33.757 z M 37.257 35.554 c 0 -0.325 0.261 -0.584 0.585 -0.586 l 11.171 0.002 c 0.32 0 0.58 0.259 0.583 0.584 v 11.173 c -0.002 0.319 -0.263 0.582 -0.583 0.582 l -11.171 -0.002 c -0.326 0 -0.585 -0.261 -0.587 -0.583 L 37.257 35.554" style="stroke: none; stroke-width: 1; stroke-dasharray: none; stroke-linecap: butt; stroke-linejoin: miter; stroke-miterlimit: 10; fill: #007F5D; fill-rule: nonzero; opacity: 1;" transform=" matrix(1 0 0 1 0 0) " stroke-linecap="round" />
  <path d="M 3.032 53.08 C 1.357 53.077 0 51.723 0 50.047 V 27.272 c 0 -1.675 1.357 -3.03 3.032 -3.032 l 0 0 l 22.774 0.002 c 1.674 0 3.031 1.355 3.031 3.03 v 22.774 c 0 1.676 -1.357 3.03 -3.031 3.033 H 3.032 L 3.032 53.08 z M 1.213 27.272 v 22.774 c 0.002 1.007 0.814 1.818 1.819 1.82 h 22.774 c 1.005 -0.002 1.819 -0.813 1.821 -1.82 V 27.272 c -0.002 -1.004 -0.816 -1.816 -1.821 -1.818 H 3.032 C 2.027 25.456 1.216 26.269 1.213 27.272 L 1.213 27.272" style="stroke: none; stroke-width: 1; stroke-dasharray: none; stroke-linecap: butt; stroke-linejoin: miter; stroke-miterlimit: 10; fill: #CC3333; fill-rule: nonzero; opacity: 1;" transform=" matrix(1 0 0 1 0 0) " stroke-linecap="round" />
</g>
</svg>